<svg xmlns="http://www.w3.org/2000/svg" viewBox="0 0 900 600">
  <rect width="900" height="200" fill="#FF9933"/>
  <rect width="900" height="200" y="200" fill="#FFFFFF"/>
  <rect width="900" height="200" y="400" fill="#138808"/>
  <g transform="translate(450,300)">
    <circle r="60" fill="#000080"/>
    <circle r="55" fill="#FFFFFF"/>
    <circle r="20" fill="#000080"/>
    <g id="spokes">
      <line x1="0" y1="0" x2="0" y2="-55" stroke="#000080" stroke-width="4"/>
      <line x1="0" y1="0" x2="0" y2="-55" stroke="#000080" stroke-width="4" transform="rotate(15)"/>
      <line x1="0" y1="0" x2="0" y2="-55" stroke="#000080" stroke-width="4" transform="rotate(30)"/>
      <line x1="0" y1="0" x2="0" y2="-55" stroke="#000080" stroke-width="4" transform="rotate(45)"/>
      <line x1="0" y1="0" x2="0" y2="-55" stroke="#000080" stroke-width="4" transform="rotate(60)"/>
      <line x1="0" y1="0" x2="0" y2="-55" stroke="#000080" stroke-width="4" transform="rotate(75)"/>
      <line x1="0" y1="0" x2="0" y2="-55" stroke="#000080" stroke-width="4" transform="rotate(90)"/>
      <line x1="0" y1="0" x2="0" y2="-55" stroke="#000080" stroke-width="4" transform="rotate(105)"/>
      <line x1="0" y1="0" x2="0" y2="-55" stroke="#000080" stroke-width="4" transform="rotate(120)"/>
      <line x1="0" y1="0" x2="0" y2="-55" stroke="#000080" stroke-width="4" transform="rotate(135)"/>
      <line x1="0" y1="0" x2="0" y2="-55" stroke="#000080" stroke-width="4" transform="rotate(150)"/>
      <line x1="0" y1="0" x2="0" y2="-55" stroke="#000080" stroke-width="4" transform="rotate(165)"/>
      <line x1="0" y1="0" x2="0" y2="-55" stroke="#000080" stroke-width="4" transform="rotate(180)"/>
      <line x1="0" y1="0" x2="0" y2="-55" stroke="#000080" stroke-width="4" transform="rotate(195)"/>
      <line x1="0" y1="0" x2="0" y2="-55" stroke="#000080" stroke-width="4" transform="rotate(210)"/>
      <line x1="0" y1="0" x2="0" y2="-55" stroke="#000080" stroke-width="4" transform="rotate(225)"/>
      <line x1="0" y1="0" x2="0" y2="-55" stroke="#000080" stroke-width="4" transform="rotate(240)"/>
      <line x1="0" y1="0" x2="0" y2="-55" stroke="#000080" stroke-width="4" transform="rotate(255)"/>
      <line x1="0" y1="0" x2="0" y2="-55" stroke="#000080" stroke-width="4" transform="rotate(270)"/>
      <line x1="0" y1="0" x2="0" y2="-55" stroke="#000080" stroke-width="4" transform="rotate(285)"/>
      <line x1="0" y1="0" x2="0" y2="-55" stroke="#000080" stroke-width="4" transform="rotate(300)"/>
      <line x1="0" y1="0" x2="0" y2="-55" stroke="#000080" stroke-width="4" transform="rotate(315)"/>
      <line x1="0" y1="0" x2="0" y2="-55" stroke="#000080" stroke-width="4" transform="rotate(330)"/>
      <line x1="0" y1="0" x2="0" y2="-55" stroke="#000080" stroke-width="4" transform="rotate(345)"/>
    </g>
  </g>
</svg> 